<?xml version="1.0" encoding="UTF-8"?>
<svg xmlns="http://www.w3.org/2000/svg" xmlns:xlink="http://www.w3.org/1999/xlink" viewBox="0 0 32 32" width="32px" height="32px">
<g id="surface230955858">
<path style=" stroke:none;fill-rule:nonzero;fill:rgb(81.176472%,44.313726%,12.156863%);fill-opacity:1;" d="M 16 2.558594 C 16.363281 2.558594 16.703125 2.699219 16.957031 2.957031 L 29.042969 15.042969 C 29.574219 15.570312 29.574219 16.429688 29.042969 16.957031 L 16.957031 29.042969 C 16.703125 29.300781 16.363281 29.441406 16 29.441406 C 15.636719 29.441406 15.296875 29.300781 15.042969 29.042969 L 2.957031 16.957031 C 2.425781 16.429688 2.425781 15.570312 2.957031 15.042969 L 10.84375 7.15625 L 12.296875 8.613281 C 11.949219 9.914062 12.300781 11.328125 13.285156 12.316406 C 13.519531 12.550781 13.789062 12.753906 14.078125 12.921875 L 14.078125 19.082031 C 12.914062 19.753906 12.160156 21.007812 12.160156 22.398438 C 12.160156 24.515625 13.882812 26.238281 16 26.238281 C 18.117188 26.238281 19.839844 24.515625 19.839844 22.398438 C 19.839844 21.007812 19.085938 19.753906 17.921875 19.082031 L 17.921875 14.234375 L 18.699219 15.011719 C 18.347656 16.3125 18.699219 17.730469 19.683594 18.714844 C 20.410156 19.441406 21.375 19.839844 22.398438 19.839844 C 23.425781 19.839844 24.390625 19.441406 25.113281 18.714844 C 26.613281 17.21875 26.613281 14.78125 25.113281 13.285156 C 24.390625 12.5625 23.433594 12.164062 22.414062 12.164062 C 22.074219 12.164062 21.738281 12.210938 21.414062 12.296875 L 19.703125 10.585938 C 20.050781 9.289062 19.699219 7.871094 18.714844 6.886719 C 17.992188 6.164062 17.035156 5.765625 16.011719 5.765625 C 15.675781 5.765625 15.335938 5.808594 15.011719 5.898438 L 13.558594 4.441406 L 15.042969 2.957031 C 15.296875 2.699219 15.636719 2.558594 16 2.558594 M 16 1.28125 C 15.324219 1.28125 14.648438 1.539062 14.136719 2.050781 L 11.746094 4.441406 L 14.703125 7.398438 C 15.109375 7.164062 15.558594 7.046875 16.011719 7.046875 C 16.664062 7.046875 17.3125 7.292969 17.808594 7.789062 C 18.652344 8.632812 18.773438 9.914062 18.199219 10.890625 L 21.105469 13.800781 C 21.507812 13.566406 21.960938 13.445312 22.414062 13.445312 C 23.0625 13.445312 23.710938 13.691406 24.210938 14.191406 C 25.210938 15.191406 25.210938 16.808594 24.210938 17.808594 C 23.710938 18.308594 23.054688 18.558594 22.398438 18.558594 C 21.746094 18.558594 21.089844 18.308594 20.589844 17.808594 C 19.746094 16.96875 19.625 15.6875 20.203125 14.703125 L 17.296875 11.796875 C 17.085938 11.921875 16.867188 12.011719 16.640625 12.066406 L 16.640625 19.929688 C 17.742188 20.214844 18.558594 21.207031 18.558594 22.398438 C 18.558594 23.816406 17.414062 24.960938 16 24.960938 C 14.585938 24.960938 13.441406 23.816406 13.441406 22.398438 C 13.441406 21.207031 14.257812 20.214844 15.359375 19.929688 L 15.359375 12.066406 C 14.933594 11.957031 14.523438 11.746094 14.191406 11.410156 C 13.347656 10.566406 13.226562 9.289062 13.800781 8.308594 L 10.84375 5.347656 L 2.050781 14.136719 C 1.023438 15.164062 1.023438 16.835938 2.050781 17.863281 L 14.136719 29.949219 C 14.648438 30.460938 15.324219 30.71875 16 30.71875 C 16.675781 30.71875 17.351562 30.460938 17.863281 29.949219 L 29.949219 17.863281 C 30.976562 16.835938 30.976562 15.164062 29.949219 14.136719 L 17.863281 2.050781 C 17.351562 1.539062 16.675781 1.28125 16 1.28125 Z M 16 1.28125 "/>
</g>
</svg>
