<?xml version="1.0" encoding="UTF-8"?>
<svg xmlns="http://www.w3.org/2000/svg" xmlns:xlink="http://www.w3.org/1999/xlink" viewBox="0 0 32 32" width="32px" height="32px">
<g id="surface47319665">
<path style=" stroke:none;fill-rule:nonzero;fill:rgb(81.176472%,44.313726%,12.156863%);fill-opacity:1;" d="M 0.667969 3.332031 L 4.667969 6 L 4.667969 19.332031 L 0.667969 16.667969 Z M 0.667969 3.332031 "/>
<path style=" stroke:none;fill-rule:nonzero;fill:rgb(27.058825%,14.901961%,3.921569%);fill-opacity:1;" d="M 31.332031 13.332031 L 27.332031 16 L 27.332031 24.667969 L 31.332031 22 Z M 31.332031 13.332031 "/>
<path style=" stroke:none;fill-rule:nonzero;fill:rgb(27.058825%,14.901961%,3.921569%);fill-opacity:1;" d="M 31.332031 4 L 27.332031 6.667969 L 27.332031 11.332031 L 31.332031 8.667969 Z M 31.332031 4 "/>
<path style=" stroke:none;fill-rule:nonzero;fill:rgb(27.058825%,14.901961%,3.921569%);fill-opacity:1;" d="M 23.332031 3.332031 L 19.332031 6 L 19.332031 19.332031 L 23.332031 16.667969 Z M 23.332031 3.332031 "/>
<path style=" stroke:none;fill-rule:nonzero;fill:rgb(81.176472%,44.313726%,12.156863%);fill-opacity:1;" d="M 0.667969 8 L 12 15.332031 L 12 10.667969 L 0.667969 3.332031 Z M 0.667969 8 "/>
<path style=" stroke:none;fill-rule:nonzero;fill:rgb(27.058825%,14.901961%,3.921569%);fill-opacity:1;" d="M 23.332031 8 L 12 15.332031 L 12 10.667969 L 23.332031 3.332031 Z M 23.332031 8 "/>
<path style=" stroke:none;fill-rule:nonzero;fill:rgb(27.058825%,14.901961%,3.921569%);fill-opacity:1;" d="M 23.332031 17.332031 L 12 24.667969 L 12 20 L 23.332031 12.667969 Z M 23.332031 17.332031 "/>
<path style=" stroke:none;fill-rule:nonzero;fill:rgb(27.058825%,14.901961%,3.921569%);fill-opacity:1;" d="M 31.332031 22.667969 L 20 30 L 20 25.332031 L 31.332031 18 Z M 31.332031 22.667969 "/>
<path style=" stroke:none;fill-rule:nonzero;fill:rgb(81.176472%,44.313726%,12.156863%);fill-opacity:1;" d="M 20 25.175781 L 12 20 L 12 24.667969 L 20 29.84375 Z M 20 25.175781 "/>
</g>
</svg>
