<?xml version="1.0" encoding="UTF-8"?>
<svg xmlns="http://www.w3.org/2000/svg" xmlns:xlink="http://www.w3.org/1999/xlink" viewBox="0 0 32 32" width="32px" height="32px">
<g id="surface230856323">
<path style=" stroke:none;fill-rule:evenodd;fill:rgb(81.176472%,44.313726%,12.156863%);fill-opacity:1;" d="M 24.960938 25.601562 L 16 28.160156 L 7.039062 25.601562 L 5.121094 3.839844 L 26.878906 3.839844 C 26.238281 11.09375 25.601562 18.347656 24.960938 25.601562 Z M 25.484375 5.121094 L 6.515625 5.121094 L 8.238281 24.609375 L 16 26.828125 L 23.761719 24.609375 Z M 10.753906 17.921875 L 13.3125 17.921875 L 13.375 19.519531 L 16 20.414062 L 18.625 19.519531 L 18.816406 16.640625 L 13.183594 16.640625 L 13.054688 14.078125 L 18.945312 14.078125 L 19.136719 11.519531 L 10.304688 11.519531 L 10.113281 8.960938 L 21.824219 8.960938 L 21.503906 14.078125 L 21.054688 21.441406 L 16 23.105469 L 10.945312 21.441406 Z M 10.753906 17.921875 "/>
</g>
</svg>
