<?xml version="1.0" encoding="UTF-8"?>
<svg xmlns="http://www.w3.org/2000/svg" xmlns:xlink="http://www.w3.org/1999/xlink" viewBox="0 0 32 32" width="32px" height="32px">
<g id="surface230269751">
<path style=" stroke:none;fill-rule:nonzero;fill:rgb(81.176472%,44.313726%,12.156863%);fill-opacity:1;" d="M 12.667969 1.332031 C 9.367188 1.332031 6.667969 4.035156 6.667969 7.332031 C 6.667969 9.257812 7.644531 10.898438 9.066406 12 C 7.644531 13.101562 6.667969 14.742188 6.667969 16.667969 C 6.667969 18.589844 7.644531 20.234375 9.066406 21.332031 C 7.644531 22.433594 6.667969 24.078125 6.667969 26 C 6.667969 29.296875 9.367188 32 12.667969 32 C 15.964844 32 18.667969 29.296875 18.667969 26 L 18.667969 13.332031 L 22 13.332031 C 25.296875 13.332031 28 10.632812 28 7.332031 C 28 4.035156 25.296875 1.332031 22 1.332031 Z M 12.667969 4 L 16 4 L 16 10.667969 L 12.667969 10.667969 C 10.808594 10.667969 9.332031 9.191406 9.332031 7.332031 C 9.332031 5.476562 10.808594 4 12.667969 4 Z M 18.667969 4 L 22 4 C 23.855469 4 25.332031 5.476562 25.332031 7.332031 C 25.332031 9.191406 23.855469 10.667969 22 10.667969 L 18.667969 10.667969 Z M 12.667969 13.332031 L 16 13.332031 L 16 20 L 12.667969 20 C 10.808594 20 9.332031 18.523438 9.332031 16.667969 C 9.332031 14.808594 10.808594 13.332031 12.667969 13.332031 Z M 22.667969 13.332031 C 20.457031 13.332031 18.667969 15.125 18.667969 17.332031 C 18.667969 19.542969 20.457031 21.332031 22.667969 21.332031 C 24.875 21.332031 26.667969 19.542969 26.667969 17.332031 C 26.667969 15.125 24.875 13.332031 22.667969 13.332031 Z M 12.667969 22.667969 L 16 22.667969 L 16 26 C 16 27.855469 14.523438 29.332031 12.667969 29.332031 C 10.808594 29.332031 9.332031 27.855469 9.332031 26 C 9.332031 24.144531 10.808594 22.667969 12.667969 22.667969 Z M 12.667969 22.667969 "/>
</g>
</svg>
