<?xml version="1.0" encoding="UTF-8"?>
<svg xmlns="http://www.w3.org/2000/svg" xmlns:xlink="http://www.w3.org/1999/xlink" viewBox="0 0 32 32" width="32px" height="32px">
<g id="surface230860381">
<path style=" stroke:none;fill-rule:nonzero;fill:rgb(81.176472%,44.313726%,12.156863%);fill-opacity:1;" d="M 20.15625 3.296875 L 3.792969 4.480469 C 3.789062 4.480469 3.785156 4.480469 3.777344 4.484375 C 3.769531 4.484375 3.761719 4.484375 3.753906 4.484375 C 3.738281 4.488281 3.722656 4.492188 3.707031 4.492188 C 3.703125 4.496094 3.695312 4.496094 3.6875 4.5 C 3.683594 4.5 3.675781 4.503906 3.667969 4.503906 C 3.652344 4.507812 3.636719 4.511719 3.621094 4.519531 C 3.609375 4.523438 3.601562 4.527344 3.589844 4.53125 C 3.585938 4.535156 3.578125 4.535156 3.574219 4.539062 C 3.539062 4.554688 3.507812 4.574219 3.476562 4.59375 C 3.472656 4.597656 3.464844 4.601562 3.460938 4.605469 C 3.449219 4.613281 3.433594 4.625 3.421875 4.636719 C 3.421875 4.636719 3.417969 4.640625 3.414062 4.640625 C 3.402344 4.652344 3.394531 4.660156 3.382812 4.671875 C 3.378906 4.679688 3.371094 4.683594 3.363281 4.691406 C 3.355469 4.703125 3.347656 4.714844 3.335938 4.726562 C 3.335938 4.730469 3.332031 4.734375 3.328125 4.738281 C 3.316406 4.75 3.308594 4.765625 3.300781 4.777344 C 3.296875 4.78125 3.296875 4.785156 3.292969 4.789062 C 3.285156 4.804688 3.277344 4.816406 3.269531 4.832031 C 3.265625 4.835938 3.261719 4.84375 3.261719 4.847656 C 3.253906 4.863281 3.246094 4.878906 3.242188 4.894531 C 3.242188 4.898438 3.238281 4.898438 3.238281 4.898438 C 3.226562 4.9375 3.214844 4.972656 3.210938 5.011719 C 3.207031 5.019531 3.207031 5.023438 3.207031 5.03125 C 3.203125 5.046875 3.203125 5.066406 3.203125 5.082031 C 3.203125 5.082031 3.203125 5.085938 3.203125 5.085938 C 3.199219 5.097656 3.199219 5.109375 3.199219 5.121094 L 3.199219 21.59375 C 3.199219 22.25 3.402344 22.890625 3.777344 23.429688 C 3.789062 23.441406 3.800781 23.457031 3.808594 23.46875 L 7.761719 28.226562 C 7.800781 28.292969 7.851562 28.355469 7.910156 28.40625 L 8.160156 28.703125 C 8.191406 28.742188 8.226562 28.777344 8.265625 28.808594 C 8.644531 29.171875 9.164062 29.386719 9.722656 29.351562 L 27.003906 28.234375 C 28.007812 28.171875 28.800781 27.324219 28.800781 26.320312 L 28.800781 9.683594 C 28.800781 9.09375 28.523438 8.570312 28.097656 8.21875 C 28.070312 8.183594 28.035156 8.152344 28 8.125 L 27.6875 7.894531 C 27.648438 7.859375 27.605469 7.828125 27.558594 7.800781 L 22.289062 3.914062 C 21.671875 3.460938 20.917969 3.242188 20.15625 3.296875 Z M 20.25 4.574219 C 20.707031 4.539062 21.160156 4.671875 21.527344 4.941406 L 25.453125 7.835938 L 9.433594 8.886719 C 8.882812 8.921875 8.34375 8.71875 7.953125 8.328125 L 5.28125 5.65625 Z M 4.480469 6.664062 L 7.046875 9.234375 L 7.679688 9.863281 L 7.679688 26.125 L 4.824219 22.6875 C 4.601562 22.367188 4.480469 21.984375 4.480469 21.59375 Z M 26.839844 9.046875 C 27.21875 9.023438 27.519531 9.304688 27.519531 9.683594 L 27.519531 26.320312 C 27.519531 26.664062 27.261719 26.9375 26.921875 26.957031 L 9.640625 28.074219 C 9.453125 28.085938 9.285156 28.019531 9.160156 27.90625 C 9.15625 27.902344 9.15625 27.898438 9.152344 27.894531 C 9.148438 27.894531 9.148438 27.890625 9.144531 27.886719 C 9.03125 27.773438 8.960938 27.617188 8.960938 27.433594 L 8.960938 10.800781 C 8.960938 10.457031 9.214844 10.183594 9.558594 10.160156 Z M 24.636719 12.160156 L 21.390625 12.339844 C 20.894531 12.390625 20.316406 12.761719 20.316406 13.359375 L 21.757812 13.480469 L 21.757812 20.324219 L 16.777344 12.640625 L 13.046875 12.851562 C 12.347656 12.902344 12.15625 13.421875 12.15625 14.082031 L 13.597656 14.082031 L 13.597656 24.042969 C 13.597656 24.042969 12.921875 24.222656 12.699219 24.28125 C 12.21875 24.40625 12.15625 24.824219 12.15625 25.121094 C 12.15625 25.121094 14.558594 25 15.664062 24.917969 C 16.917969 24.824219 16.957031 23.984375 16.957031 23.984375 L 15.515625 23.683594 L 15.515625 16.300781 C 15.515625 16.300781 19.179688 22.183594 20.296875 23.910156 C 20.824219 24.722656 21.21875 24.882812 21.910156 24.882812 C 22.476562 24.882812 23.015625 24.714844 23.675781 24.359375 L 23.675781 13.246094 C 23.675781 13.246094 23.796875 13.238281 24.179688 13.117188 C 24.617188 12.976562 24.636719 12.578125 24.636719 12.160156 Z M 24.636719 12.160156 "/>
</g>
</svg>
