<?xml version="1.0" encoding="UTF-8"?>
<svg xmlns="http://www.w3.org/2000/svg" xmlns:xlink="http://www.w3.org/1999/xlink" viewBox="0 0 32 32" width="32px" height="32px">
<g id="surface230852674">
<path style=" stroke:none;fill-rule:nonzero;fill:rgb(81.176472%,44.313726%,12.156863%);fill-opacity:1;" d="M 3.378906 1.28125 C 3.050781 1.339844 2.824219 1.648438 2.859375 1.980469 L 5.121094 27.21875 C 5.148438 27.476562 5.332031 27.691406 5.578125 27.761719 L 15.820312 30.699219 C 15.9375 30.734375 16.0625 30.734375 16.179688 30.699219 L 26.421875 27.761719 C 26.667969 27.691406 26.851562 27.476562 26.878906 27.21875 L 29.140625 1.980469 C 29.15625 1.800781 29.097656 1.621094 28.976562 1.488281 C 28.851562 1.355469 28.679688 1.28125 28.5 1.28125 L 3.5 1.28125 C 3.480469 1.28125 3.460938 1.28125 3.441406 1.28125 C 3.421875 1.28125 3.398438 1.28125 3.378906 1.28125 Z M 4.199219 2.558594 L 27.800781 2.558594 L 25.660156 26.660156 L 16 29.398438 L 6.339844 26.660156 Z M 8.019531 6.441406 C 7.691406 6.5 7.460938 6.808594 7.5 7.140625 L 8.359375 16.601562 C 8.378906 16.929688 8.648438 17.191406 8.980469 17.199219 L 19.199219 17.199219 L 18.921875 20.140625 L 16.019531 20.761719 L 13.078125 20.140625 L 12.980469 19.101562 C 12.960938 18.761719 12.675781 18.5 12.339844 18.5 L 9.21875 18.5 C 9.039062 18.5 8.867188 18.574219 8.746094 18.707031 C 8.621094 18.84375 8.5625 19.019531 8.578125 19.199219 L 8.941406 23.121094 C 8.960938 23.378906 9.132812 23.601562 9.378906 23.679688 L 15.738281 25.621094 L 15.820312 25.640625 C 15.9375 25.675781 16.0625 25.675781 16.179688 25.640625 L 22.621094 23.679688 C 22.875 23.609375 23.058594 23.386719 23.078125 23.121094 L 23.921875 13.5 C 23.9375 13.324219 23.878906 13.148438 23.761719 13.015625 C 23.644531 12.882812 23.476562 12.804688 23.300781 12.800781 L 12.398438 12.800781 L 12.238281 10.820312 L 23.578125 10.820312 C 23.914062 10.824219 24.191406 10.570312 24.21875 10.238281 L 24.5 7.140625 C 24.515625 6.960938 24.457031 6.78125 24.335938 6.648438 C 24.210938 6.515625 24.039062 6.441406 23.859375 6.441406 L 8.140625 6.441406 C 8.101562 6.433594 8.058594 6.433594 8.019531 6.441406 Z M 8.839844 7.71875 L 23.160156 7.71875 L 23 9.539062 L 11.539062 9.539062 C 11.359375 9.539062 11.1875 9.613281 11.066406 9.746094 C 10.941406 9.882812 10.882812 10.058594 10.898438 10.238281 L 11.199219 13.5 C 11.230469 13.824219 11.496094 14.074219 11.820312 14.078125 L 22.601562 14.078125 L 21.839844 22.578125 L 16 24.339844 L 10.160156 22.578125 L 9.921875 19.78125 L 11.761719 19.78125 L 11.839844 20.71875 C 11.859375 21.003906 12.0625 21.238281 12.339844 21.300781 L 15.898438 22.039062 C 15.984375 22.058594 16.074219 22.058594 16.160156 22.039062 L 19.660156 21.300781 C 19.9375 21.238281 20.140625 21.003906 20.160156 20.71875 L 20.539062 16.601562 C 20.550781 16.421875 20.488281 16.25 20.367188 16.121094 C 20.246094 15.992188 20.078125 15.921875 19.898438 15.921875 L 9.558594 15.921875 Z M 8.839844 7.71875 "/>
</g>
</svg>
