<?xml version="1.0" encoding="UTF-8"?>
<svg xmlns="http://www.w3.org/2000/svg" xmlns:xlink="http://www.w3.org/1999/xlink" viewBox="0 0 24 24" width="24px" height="24px">
<g id="surface47312959">
<path style=" stroke:none;fill-rule:nonzero;fill:rgb(81.176472%,44.313726%,12.156863%);fill-opacity:1;" d="M 11.5 2 C 8.414062 2 6 5.582031 6 10.152344 C 6 12.222656 6.503906 14.082031 7.332031 15.503906 C 7.28125 15.664062 7.25 15.824219 7.25 16 C 7.25 16.964844 8.035156 17.75 9 17.75 C 9.964844 17.75 10.75 16.964844 10.75 16 C 10.75 15.035156 9.964844 14.25 9 14.25 C 8.976562 14.25 8.953125 14.257812 8.929688 14.257812 C 8.359375 13.160156 8 11.71875 8 10.152344 C 8 6.816406 9.601562 4 11.5 4 C 12.785156 4 13.933594 5.296875 14.542969 7.167969 C 15.285156 7.289062 16.027344 7.492188 16.765625 7.746094 C 16.085938 4.386719 14.015625 2 11.5 2 Z M 11.375 8.5 C 10.410156 8.5 9.625 9.285156 9.625 10.25 C 9.625 11.214844 10.410156 12 11.375 12 C 12.0625 12 12.652344 11.601562 12.9375 11.027344 C 14.230469 11.082031 15.667969 11.457031 17.027344 12.195312 C 18.988281 13.253906 20.464844 14.886719 20.882812 16.449219 C 21.097656 17.253906 21.019531 17.957031 20.660156 18.546875 C 19.941406 19.714844 18.226562 20.179688 16.269531 19.933594 C 15.691406 20.523438 15.03125 21.066406 14.3125 21.558594 C 15.3125 21.851562 16.304688 22.003906 17.234375 22.003906 C 19.46875 22.003906 21.382812 21.1875 22.363281 19.59375 C 23.015625 18.535156 23.171875 17.269531 22.8125 15.933594 C 22.25 13.828125 20.441406 11.769531 17.976562 10.4375 C 16.179688 9.460938 14.308594 9.007812 12.613281 9.015625 C 12.296875 8.695312 11.859375 8.5 11.375 8.5 Z M 4.097656 11.742188 C 2.636719 12.953125 1.589844 14.425781 1.1875 15.933594 C 0.832031 17.269531 0.988281 18.535156 1.640625 19.59375 C 2.617188 21.183594 4.53125 22 6.765625 22 C 8.457031 22 10.332031 21.535156 12.125 20.5625 C 13.835938 19.636719 15.214844 18.363281 16.097656 16.964844 C 16.898438 16.804688 17.5 16.097656 17.5 15.25 C 17.5 14.285156 16.714844 13.5 15.75 13.5 C 14.785156 13.5 14 14.285156 14 15.25 C 14 15.574219 14.097656 15.878906 14.25 16.140625 C 13.546875 17.15625 12.46875 18.105469 11.171875 18.804688 C 8.054688 20.496094 4.464844 20.375 3.339844 18.542969 C 2.980469 17.957031 2.902344 17.253906 3.117188 16.449219 C 3.335938 15.632812 3.847656 14.800781 4.558594 14.039062 C 4.34375 13.3125 4.1875 12.546875 4.097656 11.742188 Z M 4.097656 11.742188 "/>
</g>
</svg>
