<?xml version="1.0" encoding="UTF-8"?>
<svg xmlns="http://www.w3.org/2000/svg" xmlns:xlink="http://www.w3.org/1999/xlink" viewBox="0 0 32 32" width="32px" height="32px">
<g id="surface230858275">
<path style=" stroke:none;fill-rule:nonzero;fill:rgb(81.176472%,44.313726%,12.156863%);fill-opacity:1;" d="M 4.265625 2.558594 C 3.332031 2.558594 2.558594 3.332031 2.558594 4.265625 L 2.558594 27.734375 C 2.558594 28.667969 3.332031 29.441406 4.265625 29.441406 L 27.734375 29.441406 C 28.667969 29.441406 29.441406 28.671875 29.441406 27.734375 L 29.441406 4.265625 C 29.441406 3.332031 28.671875 2.558594 27.734375 2.558594 Z M 4.265625 3.839844 L 27.734375 3.839844 C 27.96875 3.839844 28.160156 4.03125 28.160156 4.265625 L 28.160156 27.734375 C 28.160156 27.96875 27.96875 28.160156 27.734375 28.160156 L 4.265625 28.160156 C 4.03125 28.160156 3.839844 27.96875 3.839844 27.734375 L 3.839844 4.265625 C 3.839844 4.03125 4.03125 3.839844 4.265625 3.839844 Z M 14.71875 14.71875 L 14.71875 22.765625 C 14.71875 24.003906 14.253906 24.320312 13.441406 24.320312 C 12.589844 24.320312 12 23.789062 11.609375 23.101562 L 9.601562 24.320312 C 10.183594 25.550781 11.609375 26.878906 13.589844 26.878906 C 15.78125 26.878906 17.28125 25.714844 17.28125 23.15625 L 17.28125 14.71875 Z M 22.691406 14.71875 C 20.511719 14.71875 19.113281 16.113281 19.113281 17.949219 C 19.113281 19.933594 20.285156 20.875 22.046875 21.625 L 22.65625 21.886719 C 23.769531 22.375 24.320312 22.671875 24.320312 23.511719 C 24.320312 24.207031 23.789062 24.710938 22.777344 24.710938 C 21.574219 24.710938 21.003906 23.894531 20.480469 23.039062 L 18.558594 24.320312 C 19.277344 25.738281 20.566406 26.878906 22.832031 26.878906 C 25.152344 26.878906 26.878906 25.675781 26.878906 23.476562 C 26.878906 21.4375 25.710938 20.53125 23.632812 19.640625 L 23.023438 19.378906 C 21.976562 18.925781 21.519531 18.628906 21.519531 17.898438 C 21.519531 17.304688 21.976562 16.851562 22.691406 16.851562 C 23.390625 16.851562 23.84375 17.148438 24.261719 17.898438 L 26.164062 16.675781 C 25.359375 15.261719 24.242188 14.71875 22.691406 14.71875 Z M 22.691406 14.71875 "/>
</g>
</svg>
