<?xml version="1.0" encoding="UTF-8"?>
<svg xmlns="http://www.w3.org/2000/svg" xmlns:xlink="http://www.w3.org/1999/xlink" viewBox="0 0 32 32" width="32px" height="32px">
<g id="surface230859558">
<path style=" stroke:none;fill-rule:nonzero;fill:rgb(81.176472%,44.313726%,12.156863%);fill-opacity:1;" d="M 22.113281 2.550781 C 21.617188 2.535156 21.09375 2.621094 20.570312 2.789062 C 19.523438 3.128906 18.425781 3.792969 17.296875 4.707031 C 16.855469 5.066406 16.410156 5.476562 15.964844 5.914062 C 15.527344 5.488281 15.089844 5.085938 14.660156 4.734375 C 13.535156 3.820312 12.441406 3.160156 11.394531 2.820312 C 10.351562 2.484375 9.308594 2.472656 8.457031 2.964844 C 7.601562 3.457031 7.089844 4.363281 6.863281 5.4375 C 6.632812 6.511719 6.65625 7.792969 6.886719 9.222656 C 6.96875 9.722656 7.082031 10.242188 7.210938 10.773438 C 6.722656 10.921875 6.25 11.078125 5.8125 11.25 C 4.484375 11.769531 3.386719 12.386719 2.589844 13.125 C 1.789062 13.863281 1.273438 14.757812 1.273438 15.738281 C 1.273438 16.722656 1.789062 17.617188 2.589844 18.355469 C 3.386719 19.089844 4.484375 19.710938 5.8125 20.230469 C 6.28125 20.414062 6.789062 20.578125 7.316406 20.734375 C 7.125 21.441406 6.972656 22.125 6.867188 22.773438 C 6.636719 24.207031 6.613281 25.488281 6.84375 26.566406 C 7.074219 27.640625 7.585938 28.550781 8.441406 29.046875 C 9.300781 29.542969 10.34375 29.53125 11.390625 29.191406 C 12.441406 28.851562 13.535156 28.191406 14.664062 27.273438 C 15.101562 26.917969 15.542969 26.511719 15.984375 26.082031 C 16.429688 26.515625 16.875 26.925781 17.3125 27.28125 C 18.4375 28.195312 19.535156 28.859375 20.578125 29.195312 C 21.625 29.535156 22.664062 29.546875 23.515625 29.050781 C 24.371094 28.558594 24.882812 27.65625 25.109375 26.578125 C 25.339844 25.503906 25.316406 24.226562 25.085938 22.792969 C 24.980469 22.144531 24.828125 21.457031 24.636719 20.75 C 25.179688 20.589844 25.703125 20.417969 26.1875 20.230469 C 27.515625 19.710938 28.613281 19.089844 29.410156 18.355469 C 30.210938 17.617188 30.726562 16.722656 30.726562 15.738281 C 30.726562 14.757812 30.210938 13.863281 29.410156 13.125 C 28.613281 12.386719 27.515625 11.769531 26.1875 11.25 C 25.742188 11.074219 25.261719 10.917969 24.765625 10.769531 C 24.898438 10.234375 25.011719 9.707031 25.09375 9.207031 C 25.324219 7.773438 25.347656 6.492188 25.117188 5.417969 C 24.890625 4.339844 24.375 3.429688 23.519531 2.933594 C 23.089844 2.6875 22.613281 2.566406 22.113281 2.550781 Z M 22.054688 3.851562 C 22.371094 3.859375 22.636719 3.9375 22.863281 4.066406 C 23.320312 4.332031 23.660156 4.84375 23.839844 5.691406 C 24.019531 6.535156 24.015625 7.675781 23.800781 9 C 23.726562 9.453125 23.621094 9.933594 23.503906 10.425781 C 22.195312 10.113281 20.757812 9.878906 19.230469 9.742188 C 18.464844 8.675781 17.675781 7.710938 16.878906 6.851562 C 17.300781 6.441406 17.71875 6.054688 18.125 5.722656 C 19.164062 4.878906 20.152344 4.300781 20.972656 4.035156 C 21.382812 3.902344 21.742188 3.84375 22.054688 3.851562 Z M 9.910156 3.855469 C 10.226562 3.847656 10.585938 3.90625 11 4.039062 C 11.824219 4.304688 12.808594 4.882812 13.851562 5.730469 C 14.25 6.054688 14.660156 6.429688 15.070312 6.828125 C 14.269531 7.695312 13.476562 8.675781 12.703125 9.746094 C 11.179688 9.886719 9.75 10.125 8.449219 10.441406 C 8.328125 9.949219 8.222656 9.472656 8.152344 9.019531 C 7.9375 7.695312 7.933594 6.550781 8.113281 5.703125 C 8.292969 4.855469 8.636719 4.339844 9.097656 4.074219 C 9.328125 3.941406 9.597656 3.863281 9.910156 3.855469 Z M 15.984375 7.769531 C 16.507812 8.339844 17.027344 8.960938 17.546875 9.628906 C 17.035156 9.605469 16.523438 9.59375 16 9.59375 C 15.46875 9.59375 14.941406 9.605469 14.425781 9.628906 C 14.941406 8.960938 15.464844 8.339844 15.984375 7.769531 Z M 16 10.886719 C 16.871094 10.886719 17.71875 10.921875 18.542969 10.984375 C 19.113281 11.796875 19.667969 12.664062 20.195312 13.578125 C 20.660156 14.382812 21.078125 15.1875 21.460938 15.980469 C 21.074219 16.785156 20.648438 17.597656 20.175781 18.414062 C 19.761719 19.132812 19.328125 19.8125 18.890625 20.472656 C 17.957031 20.550781 16.992188 20.59375 16 20.59375 C 14.984375 20.59375 13.996094 20.546875 13.042969 20.464844 C 12.609375 19.816406 12.183594 19.144531 11.777344 18.4375 C 11.308594 17.625 10.882812 16.8125 10.496094 16.011719 C 10.882812 15.203125 11.3125 14.386719 11.785156 13.566406 C 12.308594 12.65625 12.863281 11.796875 13.425781 10.984375 C 14.261719 10.921875 15.121094 10.886719 16 10.886719 Z M 20.191406 11.140625 C 21.246094 11.273438 22.238281 11.457031 23.160156 11.675781 C 22.886719 12.574219 22.546875 13.507812 22.140625 14.476562 C 21.875 13.964844 21.601562 13.453125 21.304688 12.9375 C 20.945312 12.316406 20.570312 11.722656 20.191406 11.140625 Z M 11.738281 11.152344 C 11.371094 11.722656 11.003906 12.304688 10.652344 12.914062 C 10.351562 13.433594 10.070312 13.953125 9.804688 14.472656 C 9.398438 13.511719 9.0625 12.578125 8.792969 11.6875 C 9.707031 11.46875 10.691406 11.285156 11.738281 11.152344 Z M 24.425781 12.015625 C 24.878906 12.152344 25.316406 12.296875 25.71875 12.453125 C 26.941406 12.929688 27.910156 13.496094 28.535156 14.074219 C 29.160156 14.652344 29.433594 15.203125 29.433594 15.738281 C 29.433594 16.273438 29.160156 16.828125 28.535156 17.40625 C 27.910156 17.984375 26.941406 18.546875 25.71875 19.027344 C 25.273438 19.199219 24.78125 19.359375 24.269531 19.507812 C 23.90625 18.382812 23.441406 17.207031 22.890625 16.011719 C 23.527344 14.632812 24.039062 13.292969 24.425781 12.015625 Z M 7.554688 12.023438 C 7.933594 13.285156 8.441406 14.613281 9.070312 15.976562 C 8.511719 17.183594 8.046875 18.363281 7.679688 19.496094 C 7.1875 19.347656 6.714844 19.195312 6.28125 19.027344 C 5.058594 18.546875 4.089844 17.984375 3.464844 17.40625 C 2.839844 16.828125 2.566406 16.273438 2.566406 15.738281 C 2.566406 15.203125 2.839844 14.652344 3.464844 14.074219 C 4.089844 13.496094 5.058594 12.929688 6.28125 12.453125 C 6.675781 12.300781 7.109375 12.15625 7.554688 12.023438 Z M 16 12.800781 C 14.242188 12.800781 12.800781 14.242188 12.800781 16 C 12.800781 17.757812 14.242188 19.199219 16 19.199219 C 17.757812 19.199219 19.199219 17.757812 19.199219 16 C 19.199219 14.242188 17.757812 12.800781 16 12.800781 Z M 16 14.078125 C 17.066406 14.078125 17.921875 14.933594 17.921875 16 C 17.921875 17.066406 17.066406 17.921875 16 17.921875 C 14.933594 17.921875 14.078125 17.066406 14.078125 16 C 14.078125 14.933594 14.933594 14.078125 16 14.078125 Z M 22.15625 17.511719 C 22.492188 18.308594 22.785156 19.085938 23.027344 19.832031 C 22.257812 20.011719 21.441406 20.164062 20.578125 20.28125 C 20.824219 19.886719 21.070312 19.480469 21.308594 19.066406 C 21.609375 18.546875 21.886719 18.027344 22.15625 17.511719 Z M 9.820312 17.515625 C 10.085938 18.035156 10.367188 18.554688 10.671875 19.078125 C 10.90625 19.488281 11.148438 19.886719 11.390625 20.277344 C 10.53125 20.160156 9.714844 20.007812 8.949219 19.828125 C 9.191406 19.082031 9.484375 18.304688 9.820312 17.515625 Z M 8.578125 21.070312 C 9.738281 21.34375 10.992188 21.554688 12.324219 21.695312 C 13.214844 22.980469 14.140625 24.132812 15.070312 25.144531 C 14.65625 25.550781 14.242188 25.929688 13.835938 26.261719 C 12.796875 27.105469 11.8125 27.679688 10.988281 27.949219 C 10.167969 28.214844 9.554688 28.179688 9.097656 27.914062 C 8.640625 27.652344 8.300781 27.136719 8.121094 26.292969 C 7.941406 25.449219 7.949219 24.308594 8.160156 22.984375 C 8.257812 22.382812 8.402344 21.738281 8.578125 21.070312 Z M 23.398438 21.078125 C 23.578125 21.746094 23.722656 22.394531 23.820312 22.996094 C 24.035156 24.324219 24.039062 25.464844 23.859375 26.3125 C 23.679688 27.160156 23.339844 27.675781 22.878906 27.945312 C 22.417969 28.210938 21.796875 28.246094 20.972656 27.980469 C 20.148438 27.710938 19.164062 27.132812 18.121094 26.289062 C 17.714844 25.957031 17.296875 25.574219 16.878906 25.164062 C 17.816406 24.148438 18.75 22.988281 19.644531 21.695312 C 20.976562 21.558594 22.238281 21.351562 23.398438 21.078125 Z M 13.996094 21.824219 C 14.652344 21.859375 15.316406 21.886719 16 21.886719 C 16.660156 21.886719 17.304688 21.863281 17.941406 21.828125 C 17.289062 22.707031 16.625 23.503906 15.964844 24.222656 C 15.304688 23.503906 14.644531 22.703125 13.996094 21.824219 Z M 13.996094 21.824219 "/>
</g>
</svg>
