<?xml version="1.0" encoding="UTF-8"?>
<svg xmlns="http://www.w3.org/2000/svg" xmlns:xlink="http://www.w3.org/1999/xlink" viewBox="0 0 32 32" width="32px" height="32px">
<g id="surface230953983">
<path style=" stroke:none;fill-rule:nonzero;fill:rgb(81.176472%,44.313726%,12.156863%);fill-opacity:1;" d="M 27.542969 17.808594 C 26.425781 17.8125 25.457031 18.082031 24.644531 18.480469 C 24.347656 17.890625 24.046875 17.367188 23.996094 16.980469 C 23.9375 16.527344 23.871094 16.257812 23.941406 15.71875 C 24.011719 15.179688 24.324219 14.417969 24.320312 14.359375 C 24.316406 14.300781 24.25 14.027344 23.605469 14.023438 C 22.960938 14.019531 22.410156 14.148438 22.34375 14.320312 C 22.277344 14.488281 22.15625 14.871094 22.078125 15.273438 C 21.964844 15.855469 20.789062 17.941406 20.125 19.03125 C 19.90625 18.605469 19.71875 18.230469 19.679688 17.933594 C 19.621094 17.484375 19.554688 17.210938 19.625 16.671875 C 19.695312 16.132812 20.007812 15.371094 20.003906 15.316406 C 20 15.257812 19.933594 14.984375 19.289062 14.980469 C 18.644531 14.976562 18.09375 15.101562 18.027344 15.273438 C 17.960938 15.445312 17.894531 15.839844 17.761719 16.226562 C 17.628906 16.613281 16.066406 20.089844 15.660156 20.992188 C 15.453125 21.449219 15.269531 21.820312 15.144531 22.070312 L 15.140625 22.070312 C 15.140625 22.070312 15.132812 22.085938 15.121094 22.113281 C 15.011719 22.328125 14.945312 22.449219 14.945312 22.449219 C 14.945312 22.449219 14.945312 22.449219 14.945312 22.453125 C 14.859375 22.609375 14.765625 22.757812 14.71875 22.757812 C 14.6875 22.757812 14.621094 22.335938 14.734375 21.761719 C 14.964844 20.554688 15.523438 18.671875 15.519531 18.609375 C 15.515625 18.574219 15.621094 18.246094 15.15625 18.078125 C 14.699219 17.910156 14.539062 18.1875 14.496094 18.1875 C 14.457031 18.191406 14.425781 18.289062 14.425781 18.289062 C 14.425781 18.289062 14.933594 16.171875 13.457031 16.171875 C 12.539062 16.171875 11.261719 17.179688 10.632812 18.09375 C 10.234375 18.308594 9.386719 18.773438 8.484375 19.269531 C 8.136719 19.457031 7.785156 19.652344 7.449219 19.835938 C 7.429688 19.8125 7.40625 19.785156 7.382812 19.761719 C 5.59375 17.855469 2.289062 16.507812 2.429688 13.945312 C 2.480469 13.011719 2.804688 10.558594 8.777344 7.582031 C 13.667969 5.144531 17.585938 5.816406 18.261719 7.300781 C 19.230469 9.425781 16.167969 13.375 11.089844 13.945312 C 9.152344 14.160156 8.132812 13.410156 7.882812 13.132812 C 7.613281 12.835938 7.574219 12.824219 7.476562 12.878906 C 7.3125 12.96875 7.414062 13.230469 7.476562 13.382812 C 7.625 13.777344 8.25 14.480469 9.3125 14.828125 C 10.242188 15.132812 12.515625 15.300781 15.265625 14.238281 C 18.34375 13.046875 20.746094 9.734375 20.042969 6.964844 C 19.324219 4.152344 14.65625 3.226562 10.234375 4.792969 C 7.609375 5.722656 4.761719 7.191406 2.714844 9.105469 C 0.28125 11.382812 -0.109375 13.363281 0.0507812 14.191406 C 0.621094 17.132812 4.675781 19.050781 6.296875 20.46875 C 6.21875 20.511719 6.144531 20.554688 6.074219 20.59375 C 5.261719 20.996094 2.167969 22.613281 1.394531 24.324219 C 0.519531 26.261719 1.535156 27.652344 2.207031 27.839844 C 4.292969 28.421875 6.433594 27.375 7.582031 25.660156 C 8.730469 23.945312 8.59375 21.714844 8.0625 20.695312 C 8.058594 20.683594 8.050781 20.667969 8.042969 20.65625 C 8.253906 20.535156 8.46875 20.40625 8.679688 20.28125 C 9.097656 20.039062 9.503906 19.8125 9.855469 19.617188 C 9.65625 20.160156 9.511719 20.808594 9.4375 21.746094 C 9.351562 22.84375 9.800781 24.265625 10.390625 24.828125 C 10.652344 25.074219 10.964844 25.078125 11.164062 25.078125 C 11.847656 25.078125 12.164062 24.507812 12.507812 23.832031 C 12.929688 23.003906 13.308594 22.039062 13.308594 22.039062 C 13.308594 22.039062 12.835938 24.644531 14.121094 24.644531 C 14.589844 24.644531 15.058594 24.039062 15.269531 23.730469 C 15.269531 23.734375 15.269531 23.734375 15.269531 23.734375 C 15.269531 23.734375 15.28125 23.714844 15.304688 23.675781 C 15.351562 23.601562 15.382812 23.554688 15.382812 23.554688 C 15.382812 23.554688 15.382812 23.546875 15.382812 23.539062 C 15.570312 23.214844 15.988281 22.46875 16.613281 21.242188 C 17.421875 19.65625 18.199219 17.667969 18.199219 17.667969 C 18.199219 17.667969 18.269531 18.152344 18.503906 18.957031 C 18.644531 19.429688 18.941406 19.953125 19.171875 20.453125 C 18.984375 20.714844 18.871094 20.863281 18.871094 20.863281 C 18.871094 20.863281 18.871094 20.867188 18.871094 20.871094 C 18.722656 21.070312 18.554688 21.285156 18.378906 21.492188 C 17.742188 22.253906 16.980469 23.121094 16.878906 23.371094 C 16.761719 23.664062 16.789062 23.882812 17.019531 24.058594 C 17.1875 24.183594 17.492188 24.203125 17.804688 24.183594 C 18.378906 24.144531 18.78125 24.003906 18.980469 23.917969 C 19.292969 23.808594 19.652344 23.632812 19.992188 23.386719 C 20.617188 22.925781 20.996094 22.265625 20.957031 21.394531 C 20.9375 20.914062 20.785156 20.441406 20.59375 19.992188 C 20.648438 19.910156 20.707031 19.828125 20.761719 19.742188 C 21.75 18.300781 22.515625 16.714844 22.515625 16.714844 C 22.515625 16.714844 22.585938 17.203125 22.824219 18.003906 C 22.941406 18.410156 23.175781 18.855469 23.390625 19.289062 C 22.460938 20.042969 21.886719 20.921875 21.6875 21.496094 C 21.320312 22.558594 21.609375 23.039062 22.152344 23.148438 C 22.394531 23.199219 22.742188 23.085938 23.003906 22.976562 C 23.328125 22.867188 23.71875 22.6875 24.085938 22.421875 C 24.710938 21.960938 25.3125 21.316406 25.273438 20.445312 C 25.257812 20.046875 25.152344 19.652344 25.003906 19.273438 C 25.789062 18.945312 26.808594 18.765625 28.105469 18.914062 C 30.886719 19.242188 31.429688 20.976562 31.328125 21.703125 C 31.222656 22.429688 30.636719 22.832031 30.445312 22.949219 C 30.25 23.070312 30.1875 23.113281 30.207031 23.203125 C 30.230469 23.332031 30.320312 23.328125 30.484375 23.300781 C 30.714844 23.261719 31.945312 22.710938 32 21.367188 C 32.066406 19.660156 30.433594 17.789062 27.542969 17.808594 Z M 6.105469 25.035156 C 5.183594 26.039062 3.894531 26.417969 3.34375 26.097656 C 2.746094 25.753906 2.984375 24.273438 4.113281 23.207031 C 4.804688 22.558594 5.691406 21.957031 6.285156 21.589844 C 6.417969 21.507812 6.617188 21.390625 6.855469 21.246094 C 6.894531 21.222656 6.917969 21.210938 6.917969 21.210938 C 6.964844 21.183594 7.011719 21.15625 7.058594 21.125 C 7.46875 22.644531 7.070312 23.980469 6.105469 25.035156 Z M 12.816406 20.46875 C 12.496094 21.253906 11.824219 23.253906 11.414062 23.148438 C 11.0625 23.054688 10.851562 21.535156 11.34375 20.035156 C 11.59375 19.28125 12.125 18.382812 12.4375 18.03125 C 12.941406 17.46875 13.492188 17.285156 13.628906 17.511719 C 13.800781 17.804688 13.015625 19.980469 12.816406 20.46875 Z M 18.359375 23.117188 C 18.222656 23.1875 18.097656 23.234375 18.042969 23.199219 C 18 23.171875 18.097656 23.078125 18.097656 23.078125 C 18.097656 23.078125 18.789062 22.332031 19.0625 21.996094 C 19.222656 21.796875 19.40625 21.5625 19.609375 21.300781 C 19.609375 21.328125 19.609375 21.351562 19.609375 21.378906 C 19.609375 22.269531 18.746094 22.875 18.359375 23.117188 Z M 22.632812 22.144531 C 22.53125 22.070312 22.546875 21.835938 22.882812 21.109375 C 23.011719 20.824219 23.3125 20.34375 23.832031 19.886719 C 23.890625 20.074219 23.929688 20.253906 23.925781 20.425781 C 23.921875 21.550781 23.117188 21.96875 22.632812 22.144531 Z M 22.632812 22.144531 "/>
</g>
</svg>
