<?xml version="1.0" encoding="UTF-8"?>
<svg xmlns="http://www.w3.org/2000/svg" xmlns:xlink="http://www.w3.org/1999/xlink" viewBox="0 0 32 32" width="32px" height="32px">
<g id="surface230163565">
<path style=" stroke:none;fill-rule:nonzero;fill:rgb(81.176472%,44.313726%,12.156863%);fill-opacity:1;" d="M 0 10 L 0 21 L 9 21 L 9 23 L 16 23 L 16 21 L 32 21 L 32 10 Z M 1.777344 11.777344 L 8.890625 11.777344 L 8.890625 19.445312 L 7.113281 19.445312 L 7.113281 13.554688 L 5.335938 13.554688 L 5.335938 19.445312 L 1.777344 19.445312 Z M 10.667969 11.777344 L 17.777344 11.777344 L 17.777344 19.441406 L 14.222656 19.441406 L 14.222656 21.222656 L 10.667969 21.222656 Z M 19.558594 11.777344 L 30.226562 11.777344 L 30.226562 19.445312 L 28.445312 19.445312 L 28.445312 13.554688 L 26.667969 13.554688 L 26.667969 19.445312 L 24.890625 19.445312 L 24.890625 13.554688 L 23.113281 13.554688 L 23.113281 19.445312 L 19.558594 19.445312 Z M 14.222656 13.558594 L 14.222656 17.667969 L 16 17.667969 L 16 13.558594 Z M 14.222656 13.558594 "/>
</g>
</svg>
